<svg width="600" height="950" viewBox="0 0 600 950" fill="none" xmlns="http://www.w3.org/2000/svg">
<rect x="5" y="5" width="590" height="940" rx="15" fill="#EF4646" stroke="#646464" stroke-width="10"/>
<path d="M41.5 196C41.5 185.783 49.7827 177.5 60 177.5H390.379C398.388 177.5 405.733 173.049 409.439 165.949L439.721 107.939C442.91 101.83 449.23 98 456.121 98H540C550.217 98 558.5 106.283 558.5 116.5V890C558.5 900.217 550.217 908.5 540 908.5H60C49.7827 908.5 41.5 900.217 41.5 890V196Z" fill="#EF4646" stroke="#646464" stroke-width="3"/>
<path d="M74.5 240C74.5 235.306 78.3056 231.5 83 231.5H517C521.694 231.5 525.5 235.306 525.5 240V566C525.5 570.694 521.694 574.5 517 574.5H134.899C132.413 574.5 130.052 573.412 128.437 571.522L76.5382 510.794C75.2228 509.255 74.5 507.296 74.5 505.272V240Z" fill="#D9D9D9" stroke="#646464" stroke-width="3"/>
<rect x="100" y="254" width="400" height="241" rx="5" fill="#646464"/>
<g filter="url(#filter0_d_3_2)">
<circle cx="142.5" cy="535.5" r="22.5" fill="#EF4646"/>
<circle cx="142.5" cy="535.5" r="21" stroke="#646464" stroke-width="3"/>
</g>
<line x1="450" y1="522.5" x2="500" y2="522.5" stroke="#646464" stroke-width="3"/>
<line x1="450" y1="530.5" x2="500" y2="530.5" stroke="#646464" stroke-width="3"/>
<line x1="450" y1="538.5" x2="500" y2="538.5" stroke="#646464" stroke-width="3"/>
<line x1="450" y1="546.5" x2="500" y2="546.5" stroke="#646464" stroke-width="3"/>
<path d="M41.5 54C41.5 43.7827 49.7827 35.5 60 35.5H540C550.217 35.5 558.5 43.7827 558.5 54V63.5C558.5 73.7173 550.217 82 540 82H464.5H452.915C445.023 82 437.766 86.3237 434.008 93.2638L402.854 150.808C399.621 156.78 393.376 160.5 386.585 160.5H60C49.7827 160.5 41.5 152.217 41.5 142V54Z" fill="#EF4646" stroke="#646464" stroke-width="3"/>
<g filter="url(#filter1_d_3_2)">
<circle cx="104" cy="98" r="50" fill="#35CFFF"/>
<circle cx="104" cy="98" r="48.5" stroke="#646464" stroke-width="3"/>
</g>
<g filter="url(#filter2_d_3_2)">
<circle cx="199" cy="66" r="15" fill="#EF4646"/>
<circle cx="199" cy="66" r="14.5" stroke="#646464"/>
</g>
<g filter="url(#filter3_d_3_2)">
<circle cx="234" cy="66" r="15" fill="#FFED46"/>
<circle cx="234" cy="66" r="14.5" stroke="#646464"/>
</g>
<g filter="url(#filter4_d_3_2)">
<circle cx="269" cy="66" r="15" fill="#7BEA55"/>
<circle cx="269" cy="66" r="14.5" stroke="#646464"/>
</g>
<g filter="url(#filter5_d_3_2)">
<rect x="73" y="646" width="454" height="67" rx="10" fill="#646464"/>
<rect x="74.5" y="647.5" width="451" height="64" rx="8.5" stroke="#515151" stroke-width="3"/>
</g>
<path d="M85.4034 697V660.636H97.6903C100.543 660.636 102.875 661.151 104.686 662.181C106.509 663.199 107.858 664.578 108.734 666.318C109.61 668.058 110.048 670 110.048 672.142C110.048 674.285 109.61 676.232 108.734 677.984C107.87 679.736 106.533 681.132 104.722 682.174C102.911 683.204 100.59 683.719 97.7614 683.719H88.9545V679.812H97.6193C99.5724 679.812 101.141 679.475 102.325 678.8C103.508 678.126 104.366 677.214 104.899 676.066C105.444 674.906 105.716 673.598 105.716 672.142C105.716 670.686 105.444 669.384 104.899 668.236C104.366 667.088 103.502 666.188 102.307 665.537C101.111 664.874 99.5251 664.543 97.5483 664.543H89.8068V697H85.4034ZM116.574 697V669.727H120.764V697H116.574ZM118.704 665.182C117.887 665.182 117.183 664.904 116.591 664.347C116.011 663.791 115.721 663.122 115.721 662.341C115.721 661.56 116.011 660.891 116.591 660.335C117.183 659.778 117.887 659.5 118.704 659.5C119.521 659.5 120.219 659.778 120.799 660.335C121.391 660.891 121.687 661.56 121.687 662.341C121.687 663.122 121.391 663.791 120.799 664.347C120.219 664.904 119.521 665.182 118.704 665.182ZM132.345 687.057L132.274 681.872H133.126L145.058 669.727H150.243L137.53 682.582H137.175L132.345 687.057ZM128.439 697V660.636H132.629V697H128.439ZM145.768 697L135.115 683.506L138.098 680.594L151.095 697H145.768ZM163.662 697.639C161.933 697.639 160.365 697.314 158.956 696.663C157.548 696 156.429 695.047 155.6 693.804C154.772 692.549 154.358 691.034 154.358 689.259C154.358 687.696 154.665 686.429 155.281 685.459C155.896 684.476 156.719 683.707 157.749 683.151C158.779 682.594 159.915 682.18 161.158 681.908C162.413 681.624 163.673 681.399 164.94 681.233C166.597 681.02 167.941 680.86 168.971 680.754C170.012 680.635 170.77 680.44 171.243 680.168C171.729 679.895 171.971 679.422 171.971 678.747V678.605C171.971 676.853 171.492 675.492 170.533 674.521C169.586 673.551 168.148 673.065 166.218 673.065C164.218 673.065 162.65 673.503 161.513 674.379C160.377 675.255 159.578 676.19 159.116 677.185L155.139 675.764C155.849 674.107 156.796 672.817 157.98 671.893C159.175 670.958 160.477 670.307 161.886 669.94C163.306 669.562 164.703 669.372 166.076 669.372C166.952 669.372 167.958 669.479 169.095 669.692C170.243 669.893 171.35 670.313 172.415 670.952C173.492 671.592 174.386 672.556 175.096 673.847C175.806 675.137 176.162 676.865 176.162 679.031V697H171.971V693.307H171.758C171.474 693.899 171.001 694.532 170.338 695.207C169.675 695.881 168.793 696.455 167.692 696.929C166.591 697.402 165.248 697.639 163.662 697.639ZM164.301 693.875C165.958 693.875 167.355 693.549 168.491 692.898C169.639 692.247 170.503 691.407 171.083 690.377C171.675 689.347 171.971 688.264 171.971 687.128V683.293C171.794 683.506 171.403 683.701 170.799 683.879C170.208 684.044 169.521 684.192 168.74 684.322C167.97 684.441 167.219 684.547 166.485 684.642C165.763 684.725 165.177 684.796 164.727 684.855C163.638 684.997 162.62 685.228 161.673 685.548C160.738 685.855 159.98 686.323 159.4 686.95C158.832 687.566 158.548 688.406 158.548 689.472C158.548 690.928 159.087 692.028 160.164 692.774C161.253 693.508 162.632 693.875 164.301 693.875ZM194.889 697.568C192.333 697.568 190.131 696.964 188.284 695.757C186.438 694.55 185.017 692.887 184.023 690.768C183.029 688.649 182.531 686.228 182.531 683.506C182.531 680.736 183.04 678.291 184.058 676.173C185.088 674.042 186.521 672.379 188.355 671.183C190.202 669.976 192.356 669.372 194.818 669.372C196.736 669.372 198.464 669.727 200.003 670.438C201.542 671.148 202.802 672.142 203.785 673.42C204.767 674.699 205.377 676.19 205.614 677.895H201.423C201.104 676.652 200.394 675.551 199.293 674.592C198.204 673.622 196.736 673.136 194.889 673.136C193.256 673.136 191.824 673.562 190.593 674.415C189.373 675.255 188.42 676.445 187.734 677.984C187.059 679.511 186.722 681.304 186.722 683.364C186.722 685.471 187.053 687.305 187.716 688.868C188.391 690.43 189.338 691.644 190.557 692.508C191.788 693.372 193.232 693.804 194.889 693.804C195.978 693.804 196.967 693.615 197.855 693.236C198.742 692.857 199.494 692.312 200.11 691.602C200.725 690.892 201.163 690.04 201.423 689.045H205.614C205.377 690.655 204.791 692.105 203.856 693.396C202.933 694.674 201.708 695.692 200.181 696.45C198.665 697.195 196.902 697.568 194.889 697.568ZM215.93 680.594V697H211.74V660.636H215.93V673.989H216.285C216.924 672.58 217.883 671.461 219.161 670.633C220.452 669.792 222.168 669.372 224.311 669.372C226.169 669.372 227.797 669.745 229.193 670.491C230.59 671.225 231.673 672.355 232.443 673.882C233.224 675.397 233.615 677.327 233.615 679.67V697H229.424V679.955C229.424 677.788 228.862 676.113 227.737 674.93C226.625 673.734 225.08 673.136 223.103 673.136C221.73 673.136 220.499 673.426 219.41 674.006C218.333 674.586 217.481 675.433 216.853 676.545C216.238 677.658 215.93 679.008 215.93 680.594ZM258.468 685.849V669.727H262.658V697H258.468V692.384H258.184C257.545 693.768 256.55 694.946 255.201 695.917C253.852 696.876 252.147 697.355 250.087 697.355C248.383 697.355 246.868 696.982 245.542 696.237C244.216 695.479 243.174 694.343 242.417 692.827C241.659 691.3 241.281 689.377 241.281 687.057V669.727H245.471V686.773C245.471 688.761 246.027 690.348 247.14 691.531C248.264 692.715 249.697 693.307 251.437 693.307C252.478 693.307 253.538 693.04 254.615 692.508C255.704 691.975 256.616 691.158 257.349 690.058C258.095 688.957 258.468 687.554 258.468 685.849Z" fill="white"/>
<g filter="url(#filter6_d_3_2)">
<rect x="73" y="743" width="140" height="50" rx="5" fill="#00CA81"/>
<rect x="74" y="744" width="138" height="48" rx="4" stroke="#646464" stroke-width="2"/>
</g>
<g filter="url(#filter7_d_3_2)">
<rect x="230" y="743" width="140" height="50" rx="5" fill="#E0B005"/>
<rect x="231" y="744" width="138" height="48" rx="4" stroke="#646464" stroke-width="2"/>
</g>
<g filter="url(#filter8_d_3_2)">
<rect x="387" y="743" width="140" height="50" rx="5" fill="#EF4646"/>
<rect x="388" y="744" width="138" height="48" rx="4" stroke="#646464" stroke-width="2"/>
</g>
<path d="M108.253 763.636C108.125 762.557 107.606 761.719 106.697 761.122C105.788 760.526 104.673 760.227 103.352 760.227C102.386 760.227 101.541 760.384 100.816 760.696C100.099 761.009 99.5381 761.438 99.1333 761.985C98.7355 762.532 98.5367 763.153 98.5367 763.849C98.5367 764.432 98.6752 764.933 98.9521 765.352C99.2362 765.763 99.5985 766.108 100.039 766.385C100.479 766.655 100.941 766.879 101.424 767.056C101.907 767.227 102.351 767.365 102.755 767.472L104.971 768.068C105.54 768.217 106.172 768.423 106.868 768.686C107.571 768.949 108.242 769.308 108.881 769.762C109.527 770.21 110.06 770.785 110.479 771.488C110.898 772.191 111.108 773.054 111.108 774.077C111.108 775.256 110.799 776.321 110.181 777.273C109.57 778.224 108.675 778.981 107.496 779.542C106.324 780.103 104.9 780.384 103.224 780.384C101.662 780.384 100.309 780.131 99.1652 779.627C98.0289 779.123 97.134 778.42 96.4806 777.518C95.8343 776.616 95.4685 775.568 95.3833 774.375H98.1105C98.1816 775.199 98.4585 775.881 98.9415 776.42C99.4316 776.953 100.049 777.351 100.795 777.614C101.548 777.869 102.358 777.997 103.224 777.997C104.233 777.997 105.138 777.834 105.941 777.507C106.743 777.173 107.379 776.712 107.848 776.122C108.316 775.526 108.551 774.83 108.551 774.034C108.551 773.31 108.348 772.72 107.944 772.266C107.539 771.811 107.006 771.442 106.346 771.158C105.685 770.874 104.971 770.625 104.204 770.412L101.52 769.645C99.8151 769.155 98.4656 768.455 97.4713 767.546C96.477 766.637 95.9798 765.447 95.9798 763.977C95.9798 762.756 96.3101 761.69 96.9706 760.781C97.6382 759.865 98.5331 759.155 99.6553 758.651C100.785 758.139 102.045 757.884 103.437 757.884C104.843 757.884 106.093 758.136 107.187 758.64C108.281 759.137 109.147 759.819 109.787 760.685C110.433 761.552 110.774 762.536 110.809 763.636H108.253ZM121.972 780.341C120.395 780.341 119.035 779.993 117.891 779.297C116.755 778.594 115.878 777.614 115.26 776.357C114.649 775.092 114.344 773.622 114.344 771.946C114.344 770.27 114.649 768.793 115.26 767.514C115.878 766.229 116.737 765.227 117.838 764.51C118.946 763.786 120.239 763.423 121.716 763.423C122.568 763.423 123.41 763.565 124.241 763.849C125.072 764.134 125.828 764.595 126.51 765.234C127.192 765.866 127.735 766.705 128.14 767.749C128.545 768.793 128.747 770.078 128.747 771.605V772.67H116.133V770.497H126.19C126.19 769.574 126.006 768.75 125.636 768.026C125.274 767.301 124.756 766.729 124.081 766.31C123.413 765.891 122.625 765.682 121.716 765.682C120.714 765.682 119.848 765.93 119.116 766.428C118.392 766.918 117.834 767.557 117.444 768.345C117.053 769.134 116.858 769.979 116.858 770.881V772.33C116.858 773.565 117.071 774.613 117.497 775.472C117.93 776.325 118.53 776.974 119.297 777.422C120.065 777.862 120.956 778.082 121.972 778.082C122.632 778.082 123.229 777.99 123.761 777.805C124.301 777.614 124.766 777.33 125.157 776.953C125.547 776.57 125.849 776.094 126.062 775.526L128.491 776.207C128.236 777.031 127.806 777.756 127.202 778.381C126.599 778.999 125.853 779.482 124.965 779.83C124.077 780.17 123.079 780.341 121.972 780.341ZM137.387 780.384C136.35 780.384 135.409 780.188 134.564 779.798C133.719 779.4 133.047 778.828 132.55 778.082C132.053 777.33 131.805 776.42 131.805 775.355C131.805 774.418 131.989 773.658 132.359 773.075C132.728 772.486 133.222 772.024 133.839 771.69C134.457 771.357 135.139 771.108 135.885 770.945C136.638 770.774 137.394 770.639 138.154 770.54C139.148 770.412 139.954 770.316 140.572 770.252C141.197 770.181 141.652 770.064 141.936 769.901C142.227 769.737 142.373 769.453 142.373 769.048V768.963C142.373 767.912 142.085 767.095 141.51 766.513C140.942 765.93 140.079 765.639 138.921 765.639C137.721 765.639 136.78 765.902 136.098 766.428C135.416 766.953 134.937 767.514 134.66 768.111L132.273 767.259C132.699 766.264 133.268 765.49 133.978 764.936C134.695 764.375 135.476 763.984 136.322 763.764C137.174 763.537 138.012 763.423 138.836 763.423C139.361 763.423 139.965 763.487 140.647 763.615C141.336 763.736 142 763.988 142.639 764.371C143.285 764.755 143.822 765.334 144.248 766.108C144.674 766.882 144.887 767.919 144.887 769.219V780H142.373V777.784H142.245C142.074 778.139 141.79 778.519 141.393 778.924C140.995 779.329 140.466 779.673 139.805 779.957C139.145 780.241 138.339 780.384 137.387 780.384ZM137.771 778.125C138.765 778.125 139.603 777.93 140.285 777.539C140.974 777.148 141.492 776.644 141.84 776.026C142.195 775.408 142.373 774.759 142.373 774.077V771.776C142.266 771.903 142.032 772.021 141.67 772.127C141.315 772.227 140.903 772.315 140.434 772.393C139.972 772.464 139.521 772.528 139.081 772.585C138.648 772.635 138.296 772.678 138.026 772.713C137.373 772.798 136.762 772.937 136.194 773.129C135.633 773.313 135.178 773.594 134.83 773.97C134.489 774.339 134.319 774.844 134.319 775.483C134.319 776.357 134.642 777.017 135.288 777.464C135.942 777.905 136.769 778.125 137.771 778.125ZM149.476 780V763.636H151.905V766.108H152.075C152.374 765.298 152.913 764.641 153.695 764.137C154.476 763.633 155.357 763.381 156.337 763.381C156.521 763.381 156.752 763.384 157.029 763.391C157.306 763.398 157.516 763.409 157.658 763.423V765.98C157.573 765.959 157.377 765.927 157.072 765.884C156.774 765.835 156.457 765.81 156.124 765.81C155.328 765.81 154.618 765.977 153.993 766.31C153.375 766.637 152.885 767.092 152.523 767.674C152.168 768.249 151.99 768.906 151.99 769.645V780H149.476ZM166.788 780.341C165.254 780.341 163.933 779.979 162.825 779.254C161.717 778.53 160.864 777.532 160.268 776.261C159.671 774.989 159.373 773.537 159.373 771.903C159.373 770.241 159.678 768.775 160.289 767.504C160.907 766.225 161.766 765.227 162.867 764.51C163.975 763.786 165.268 763.423 166.745 763.423C167.896 763.423 168.933 763.636 169.856 764.062C170.779 764.489 171.536 765.085 172.125 765.852C172.715 766.619 173.08 767.514 173.222 768.537H170.708C170.516 767.791 170.09 767.131 169.43 766.555C168.776 765.973 167.896 765.682 166.788 765.682C165.808 765.682 164.948 765.937 164.21 766.449C163.478 766.953 162.906 767.667 162.494 768.59C162.09 769.506 161.887 770.582 161.887 771.818C161.887 773.082 162.086 774.183 162.484 775.121C162.889 776.058 163.457 776.786 164.188 777.305C164.927 777.823 165.793 778.082 166.788 778.082C167.441 778.082 168.034 777.969 168.567 777.741C169.1 777.514 169.551 777.188 169.92 776.761C170.289 776.335 170.552 775.824 170.708 775.227H173.222C173.08 776.193 172.729 777.063 172.168 777.837C171.614 778.604 170.879 779.215 169.962 779.67C169.053 780.117 167.995 780.341 166.788 780.341ZM179.412 770.156V780H176.898V758.182H179.412V766.193H179.625C180.009 765.348 180.584 764.677 181.351 764.18C182.125 763.675 183.155 763.423 184.44 763.423C185.555 763.423 186.532 763.647 187.37 764.094C188.208 764.535 188.858 765.213 189.32 766.129C189.788 767.038 190.023 768.196 190.023 769.602V780H187.509V769.773C187.509 768.473 187.171 767.468 186.497 766.758C185.829 766.04 184.902 765.682 183.716 765.682C182.892 765.682 182.153 765.856 181.5 766.204C180.854 766.552 180.342 767.06 179.966 767.727C179.597 768.395 179.412 769.205 179.412 770.156Z" fill="white"/>
<path d="M244.517 780V758.182H251.889C253.594 758.182 254.993 758.473 256.087 759.055C257.18 759.631 257.99 760.423 258.516 761.431C259.041 762.44 259.304 763.587 259.304 764.872C259.304 766.158 259.041 767.298 258.516 768.292C257.99 769.286 257.184 770.067 256.097 770.636C255.011 771.197 253.622 771.477 251.932 771.477H245.966V769.091H251.847C253.011 769.091 253.949 768.92 254.659 768.58C255.376 768.239 255.895 767.756 256.214 767.131C256.541 766.499 256.705 765.746 256.705 764.872C256.705 763.999 256.541 763.235 256.214 762.582C255.888 761.928 255.366 761.424 254.648 761.069C253.931 760.707 252.983 760.526 251.804 760.526H247.159V780H244.517ZM254.787 770.199L260.156 780H257.088L251.804 770.199H254.787ZM268.181 780.384C267.144 780.384 266.203 780.188 265.358 779.798C264.513 779.4 263.841 778.828 263.344 778.082C262.847 777.33 262.599 776.42 262.599 775.355C262.599 774.418 262.783 773.658 263.153 773.075C263.522 772.486 264.015 772.024 264.633 771.69C265.251 771.357 265.933 771.108 266.679 770.945C267.432 770.774 268.188 770.639 268.948 770.54C269.942 770.412 270.748 770.316 271.366 770.252C271.991 770.181 272.446 770.064 272.73 769.901C273.021 769.737 273.167 769.453 273.167 769.048V768.963C273.167 767.912 272.879 767.095 272.304 766.513C271.736 765.93 270.873 765.639 269.715 765.639C268.515 765.639 267.574 765.902 266.892 766.428C266.21 766.953 265.731 767.514 265.454 768.111L263.067 767.259C263.493 766.264 264.062 765.49 264.772 764.936C265.489 764.375 266.27 763.984 267.116 763.764C267.968 763.537 268.806 763.423 269.63 763.423C270.155 763.423 270.759 763.487 271.441 763.615C272.13 763.736 272.794 763.988 273.433 764.371C274.079 764.755 274.616 765.334 275.042 766.108C275.468 766.882 275.681 767.919 275.681 769.219V780H273.167V777.784H273.039C272.868 778.139 272.584 778.519 272.187 778.924C271.789 779.329 271.26 779.673 270.599 779.957C269.939 780.241 269.133 780.384 268.181 780.384ZM268.564 778.125C269.559 778.125 270.397 777.93 271.079 777.539C271.768 777.148 272.286 776.644 272.634 776.026C272.989 775.408 273.167 774.759 273.167 774.077V771.776C273.06 771.903 272.826 772.021 272.464 772.127C272.108 772.227 271.697 772.315 271.228 772.393C270.766 772.464 270.315 772.528 269.875 772.585C269.442 772.635 269.09 772.678 268.82 772.713C268.167 772.798 267.556 772.937 266.988 773.129C266.427 773.313 265.972 773.594 265.624 773.97C265.283 774.339 265.113 774.844 265.113 775.483C265.113 776.357 265.436 777.017 266.082 777.464C266.736 777.905 267.563 778.125 268.564 778.125ZM282.784 770.156V780H280.27V763.636H282.699V766.193H282.912C283.295 765.362 283.878 764.695 284.659 764.19C285.44 763.679 286.449 763.423 287.685 763.423C288.793 763.423 289.762 763.651 290.593 764.105C291.424 764.553 292.07 765.234 292.532 766.151C292.994 767.06 293.224 768.21 293.224 769.602V780H290.71V769.773C290.71 768.487 290.376 767.486 289.709 766.768C289.041 766.044 288.125 765.682 286.96 765.682C286.158 765.682 285.44 765.856 284.808 766.204C284.183 766.552 283.69 767.06 283.327 767.727C282.965 768.395 282.784 769.205 282.784 770.156ZM303.998 780.341C302.634 780.341 301.43 779.996 300.386 779.308C299.342 778.612 298.525 777.631 297.936 776.367C297.346 775.096 297.052 773.594 297.052 771.861C297.052 770.142 297.346 768.651 297.936 767.386C298.525 766.122 299.346 765.146 300.397 764.457C301.448 763.768 302.662 763.423 304.04 763.423C305.106 763.423 305.947 763.601 306.565 763.956C307.19 764.304 307.666 764.702 307.993 765.149C308.327 765.589 308.586 765.952 308.77 766.236H308.983V758.182H311.498V780H309.069V777.486H308.77C308.586 777.784 308.323 778.161 307.982 778.615C307.641 779.062 307.155 779.464 306.523 779.819C305.89 780.167 305.049 780.341 303.998 780.341ZM304.339 778.082C305.347 778.082 306.199 777.82 306.895 777.294C307.591 776.761 308.121 776.026 308.483 775.089C308.845 774.144 309.026 773.054 309.026 771.818C309.026 770.597 308.849 769.528 308.493 768.612C308.138 767.688 307.613 766.971 306.917 766.46C306.221 765.941 305.361 765.682 304.339 765.682C303.273 765.682 302.385 765.955 301.675 766.502C300.972 767.042 300.443 767.777 300.088 768.707C299.74 769.631 299.566 770.668 299.566 771.818C299.566 772.983 299.743 774.041 300.099 774.993C300.461 775.937 300.993 776.69 301.697 777.251C302.407 777.805 303.287 778.082 304.339 778.082ZM323.099 780.341C321.622 780.341 320.326 779.989 319.211 779.286C318.103 778.583 317.236 777.599 316.611 776.335C315.993 775.071 315.684 773.594 315.684 771.903C315.684 770.199 315.993 768.711 316.611 767.44C317.236 766.168 318.103 765.181 319.211 764.478C320.326 763.775 321.622 763.423 323.099 763.423C324.577 763.423 325.869 763.775 326.977 764.478C328.092 765.181 328.959 766.168 329.577 767.44C330.202 768.711 330.514 770.199 330.514 771.903C330.514 773.594 330.202 775.071 329.577 776.335C328.959 777.599 328.092 778.583 326.977 779.286C325.869 779.989 324.577 780.341 323.099 780.341ZM323.099 778.082C324.221 778.082 325.145 777.795 325.869 777.219C326.594 776.644 327.13 775.888 327.478 774.95C327.826 774.013 328 772.997 328 771.903C328 770.81 327.826 769.79 327.478 768.846C327.13 767.901 326.594 767.138 325.869 766.555C325.145 765.973 324.221 765.682 323.099 765.682C321.977 765.682 321.054 765.973 320.329 766.555C319.605 767.138 319.069 767.901 318.721 768.846C318.373 769.79 318.199 770.81 318.199 771.903C318.199 772.997 318.373 774.013 318.721 774.95C319.069 775.888 319.605 776.644 320.329 777.219C321.054 777.795 321.977 778.082 323.099 778.082ZM334.352 780V763.636H336.781V766.193H336.994C337.335 765.32 337.885 764.641 338.645 764.158C339.405 763.668 340.318 763.423 341.383 763.423C342.463 763.423 343.361 763.668 344.078 764.158C344.803 764.641 345.368 765.32 345.772 766.193H345.943C346.362 765.348 346.99 764.677 347.828 764.18C348.667 763.675 349.672 763.423 350.843 763.423C352.306 763.423 353.503 763.881 354.434 764.798C355.364 765.707 355.829 767.124 355.829 769.048V780H353.315V769.048C353.315 767.841 352.985 766.978 352.324 766.46C351.664 765.941 350.886 765.682 349.991 765.682C348.841 765.682 347.949 766.03 347.317 766.726C346.685 767.415 346.369 768.288 346.369 769.347V780H343.812V768.793C343.812 767.862 343.51 767.113 342.907 766.545C342.303 765.969 341.525 765.682 340.574 765.682C339.92 765.682 339.309 765.856 338.741 766.204C338.18 766.552 337.725 767.035 337.377 767.653C337.037 768.263 336.866 768.97 336.866 769.773V780H334.352Z" fill="white"/>
<path d="M436.269 765H433.627C433.471 764.24 433.197 763.572 432.807 762.997C432.423 762.422 431.955 761.939 431.401 761.548C430.854 761.151 430.246 760.852 429.579 760.653C428.911 760.455 428.215 760.355 427.491 760.355C426.17 760.355 424.973 760.689 423.901 761.357C422.835 762.024 421.987 763.008 421.354 764.308C420.729 765.607 420.417 767.202 420.417 769.091C420.417 770.98 420.729 772.575 421.354 773.874C421.987 775.174 422.835 776.158 423.901 776.825C424.973 777.493 426.17 777.827 427.491 777.827C428.215 777.827 428.911 777.727 429.579 777.528C430.246 777.33 430.854 777.035 431.401 776.644C431.955 776.246 432.423 775.76 432.807 775.185C433.197 774.602 433.471 773.935 433.627 773.182H436.269C436.07 774.297 435.708 775.295 435.183 776.175C434.657 777.056 434.004 777.805 433.222 778.423C432.441 779.034 431.564 779.499 430.591 779.819C429.625 780.138 428.592 780.298 427.491 780.298C425.63 780.298 423.975 779.844 422.526 778.935C421.077 778.026 419.938 776.733 419.107 775.057C418.276 773.381 417.86 771.392 417.86 769.091C417.86 766.79 418.276 764.801 419.107 763.125C419.938 761.449 421.077 760.156 422.526 759.247C423.975 758.338 425.63 757.884 427.491 757.884C428.592 757.884 429.625 758.043 430.591 758.363C431.564 758.683 432.441 759.151 433.222 759.769C434.004 760.38 434.657 761.126 435.183 762.006C435.708 762.88 436.07 763.878 436.269 765ZM442.712 758.182V780H440.198V758.182H442.712ZM454.178 780.341C452.601 780.341 451.241 779.993 450.097 779.297C448.961 778.594 448.084 777.614 447.466 776.357C446.855 775.092 446.55 773.622 446.55 771.946C446.55 770.27 446.855 768.793 447.466 767.514C448.084 766.229 448.943 765.227 450.044 764.51C451.152 763.786 452.445 763.423 453.922 763.423C454.774 763.423 455.616 763.565 456.447 763.849C457.278 764.134 458.034 764.595 458.716 765.234C459.398 765.866 459.941 766.705 460.346 767.749C460.751 768.793 460.953 770.078 460.953 771.605V772.67H448.339V770.497H458.396C458.396 769.574 458.212 768.75 457.842 768.026C457.48 767.301 456.962 766.729 456.287 766.31C455.619 765.891 454.831 765.682 453.922 765.682C452.92 765.682 452.054 765.93 451.322 766.428C450.598 766.918 450.04 767.557 449.65 768.345C449.259 769.134 449.064 769.979 449.064 770.881V772.33C449.064 773.565 449.277 774.613 449.703 775.472C450.136 776.325 450.737 776.974 451.504 777.422C452.271 777.862 453.162 778.082 454.178 778.082C454.838 778.082 455.435 777.99 455.967 777.805C456.507 777.614 456.972 777.33 457.363 776.953C457.754 776.57 458.055 776.094 458.268 775.526L460.697 776.207C460.442 777.031 460.012 777.756 459.408 778.381C458.805 778.999 458.059 779.482 457.171 779.83C456.283 780.17 455.286 780.341 454.178 780.341ZM469.593 780.384C468.556 780.384 467.615 780.188 466.77 779.798C465.925 779.4 465.254 778.828 464.756 778.082C464.259 777.33 464.011 776.42 464.011 775.355C464.011 774.418 464.195 773.658 464.565 773.075C464.934 772.486 465.428 772.024 466.045 771.69C466.663 771.357 467.345 771.108 468.091 770.945C468.844 770.774 469.6 770.639 470.36 770.54C471.354 770.412 472.161 770.316 472.778 770.252C473.403 770.181 473.858 770.064 474.142 769.901C474.433 769.737 474.579 769.453 474.579 769.048V768.963C474.579 767.912 474.291 767.095 473.716 766.513C473.148 765.93 472.285 765.639 471.127 765.639C469.927 765.639 468.986 765.902 468.304 766.428C467.622 766.953 467.143 767.514 466.866 768.111L464.479 767.259C464.906 766.264 465.474 765.49 466.184 764.936C466.901 764.375 467.683 763.984 468.528 763.764C469.38 763.537 470.218 763.423 471.042 763.423C471.567 763.423 472.171 763.487 472.853 763.615C473.542 763.736 474.206 763.988 474.845 764.371C475.491 764.755 476.028 765.334 476.454 766.108C476.88 766.882 477.093 767.919 477.093 769.219V780H474.579V777.784H474.451C474.281 778.139 473.996 778.519 473.599 778.924C473.201 779.329 472.672 779.673 472.011 779.957C471.351 780.241 470.545 780.384 469.593 780.384ZM469.977 778.125C470.971 778.125 471.809 777.93 472.491 777.539C473.18 777.148 473.698 776.644 474.046 776.026C474.401 775.408 474.579 774.759 474.579 774.077V771.776C474.472 771.903 474.238 772.021 473.876 772.127C473.521 772.227 473.109 772.315 472.64 772.393C472.178 772.464 471.727 772.528 471.287 772.585C470.854 772.635 470.502 772.678 470.232 772.713C469.579 772.798 468.968 772.937 468.4 773.129C467.839 773.313 467.384 773.594 467.036 773.97C466.695 774.339 466.525 774.844 466.525 775.483C466.525 776.357 466.848 777.017 467.494 777.464C468.148 777.905 468.975 778.125 469.977 778.125ZM484.196 770.156V780H481.682V763.636H484.111V766.193H484.324C484.708 765.362 485.29 764.695 486.071 764.19C486.852 763.679 487.861 763.423 489.097 763.423C490.205 763.423 491.174 763.651 492.005 764.105C492.836 764.553 493.482 765.234 493.944 766.151C494.406 767.06 494.637 768.21 494.637 769.602V780H492.122V769.773C492.122 768.487 491.789 767.486 491.121 766.768C490.453 766.044 489.537 765.682 488.372 765.682C487.57 765.682 486.852 765.856 486.22 766.204C485.595 766.552 485.102 767.06 484.74 767.727C484.377 768.395 484.196 769.205 484.196 770.156Z" fill="white"/>
<rect x="74" y="881" width="98" height="13" rx="6.5" fill="#35CFFF" stroke="#646464" stroke-width="2"/>
<rect x="189" y="881" width="98" height="13" rx="6.5" fill="#EF4646" stroke="#646464" stroke-width="2"/>
<defs>
<filter id="filter0_d_3_2" x="115" y="508" width="57" height="57" filterUnits="userSpaceOnUse" color-interpolation-filters="sRGB">
<feFlood flood-opacity="0" result="BackgroundImageFix"/>
<feColorMatrix in="SourceAlpha" type="matrix" values="0 0 0 0 0 0 0 0 0 0 0 0 0 0 0 0 0 0 127 0" result="hardAlpha"/>
<feMorphology radius="1" operator="dilate" in="SourceAlpha" result="effect1_dropShadow_3_2"/>
<feOffset dx="1" dy="1"/>
<feGaussianBlur stdDeviation="2.5"/>
<feComposite in2="hardAlpha" operator="out"/>
<feColorMatrix type="matrix" values="0 0 0 0 0 0 0 0 0 0 0 0 0 0 0 0 0 0 0.5 0"/>
<feBlend mode="normal" in2="BackgroundImageFix" result="effect1_dropShadow_3_2"/>
<feBlend mode="normal" in="SourceGraphic" in2="effect1_dropShadow_3_2" result="shape"/>
</filter>
<filter id="filter1_d_3_2" x="50" y="48" width="108" height="108" filterUnits="userSpaceOnUse" color-interpolation-filters="sRGB">
<feFlood flood-opacity="0" result="BackgroundImageFix"/>
<feColorMatrix in="SourceAlpha" type="matrix" values="0 0 0 0 0 0 0 0 0 0 0 0 0 0 0 0 0 0 127 0" result="hardAlpha"/>
<feOffset dy="4"/>
<feGaussianBlur stdDeviation="2"/>
<feComposite in2="hardAlpha" operator="out"/>
<feColorMatrix type="matrix" values="0 0 0 0 0 0 0 0 0 0 0 0 0 0 0 0 0 0 0.25 0"/>
<feBlend mode="normal" in2="BackgroundImageFix" result="effect1_dropShadow_3_2"/>
<feBlend mode="normal" in="SourceGraphic" in2="effect1_dropShadow_3_2" result="shape"/>
</filter>
<filter id="filter2_d_3_2" x="180" y="51" width="38" height="38" filterUnits="userSpaceOnUse" color-interpolation-filters="sRGB">
<feFlood flood-opacity="0" result="BackgroundImageFix"/>
<feColorMatrix in="SourceAlpha" type="matrix" values="0 0 0 0 0 0 0 0 0 0 0 0 0 0 0 0 0 0 127 0" result="hardAlpha"/>
<feOffset dy="4"/>
<feGaussianBlur stdDeviation="2"/>
<feComposite in2="hardAlpha" operator="out"/>
<feColorMatrix type="matrix" values="0 0 0 0 0 0 0 0 0 0 0 0 0 0 0 0 0 0 0.25 0"/>
<feBlend mode="normal" in2="BackgroundImageFix" result="effect1_dropShadow_3_2"/>
<feBlend mode="normal" in="SourceGraphic" in2="effect1_dropShadow_3_2" result="shape"/>
</filter>
<filter id="filter3_d_3_2" x="215" y="51" width="38" height="38" filterUnits="userSpaceOnUse" color-interpolation-filters="sRGB">
<feFlood flood-opacity="0" result="BackgroundImageFix"/>
<feColorMatrix in="SourceAlpha" type="matrix" values="0 0 0 0 0 0 0 0 0 0 0 0 0 0 0 0 0 0 127 0" result="hardAlpha"/>
<feOffset dy="4"/>
<feGaussianBlur stdDeviation="2"/>
<feComposite in2="hardAlpha" operator="out"/>
<feColorMatrix type="matrix" values="0 0 0 0 0 0 0 0 0 0 0 0 0 0 0 0 0 0 0.25 0"/>
<feBlend mode="normal" in2="BackgroundImageFix" result="effect1_dropShadow_3_2"/>
<feBlend mode="normal" in="SourceGraphic" in2="effect1_dropShadow_3_2" result="shape"/>
</filter>
<filter id="filter4_d_3_2" x="250" y="51" width="38" height="38" filterUnits="userSpaceOnUse" color-interpolation-filters="sRGB">
<feFlood flood-opacity="0" result="BackgroundImageFix"/>
<feColorMatrix in="SourceAlpha" type="matrix" values="0 0 0 0 0 0 0 0 0 0 0 0 0 0 0 0 0 0 127 0" result="hardAlpha"/>
<feOffset dy="4"/>
<feGaussianBlur stdDeviation="2"/>
<feComposite in2="hardAlpha" operator="out"/>
<feColorMatrix type="matrix" values="0 0 0 0 0 0 0 0 0 0 0 0 0 0 0 0 0 0 0.25 0"/>
<feBlend mode="normal" in2="BackgroundImageFix" result="effect1_dropShadow_3_2"/>
<feBlend mode="normal" in="SourceGraphic" in2="effect1_dropShadow_3_2" result="shape"/>
</filter>
<filter id="filter5_d_3_2" x="69" y="646" width="462" height="75" filterUnits="userSpaceOnUse" color-interpolation-filters="sRGB">
<feFlood flood-opacity="0" result="BackgroundImageFix"/>
<feColorMatrix in="SourceAlpha" type="matrix" values="0 0 0 0 0 0 0 0 0 0 0 0 0 0 0 0 0 0 127 0" result="hardAlpha"/>
<feOffset dy="4"/>
<feGaussianBlur stdDeviation="2"/>
<feComposite in2="hardAlpha" operator="out"/>
<feColorMatrix type="matrix" values="0 0 0 0 0 0 0 0 0 0 0 0 0 0 0 0 0 0 0.25 0"/>
<feBlend mode="normal" in2="BackgroundImageFix" result="effect1_dropShadow_3_2"/>
<feBlend mode="normal" in="SourceGraphic" in2="effect1_dropShadow_3_2" result="shape"/>
</filter>
<filter id="filter6_d_3_2" x="69" y="743" width="148" height="58" filterUnits="userSpaceOnUse" color-interpolation-filters="sRGB">
<feFlood flood-opacity="0" result="BackgroundImageFix"/>
<feColorMatrix in="SourceAlpha" type="matrix" values="0 0 0 0 0 0 0 0 0 0 0 0 0 0 0 0 0 0 127 0" result="hardAlpha"/>
<feOffset dy="4"/>
<feGaussianBlur stdDeviation="2"/>
<feComposite in2="hardAlpha" operator="out"/>
<feColorMatrix type="matrix" values="0 0 0 0 0 0 0 0 0 0 0 0 0 0 0 0 0 0 0.25 0"/>
<feBlend mode="normal" in2="BackgroundImageFix" result="effect1_dropShadow_3_2"/>
<feBlend mode="normal" in="SourceGraphic" in2="effect1_dropShadow_3_2" result="shape"/>
</filter>
<filter id="filter7_d_3_2" x="226" y="743" width="148" height="58" filterUnits="userSpaceOnUse" color-interpolation-filters="sRGB">
<feFlood flood-opacity="0" result="BackgroundImageFix"/>
<feColorMatrix in="SourceAlpha" type="matrix" values="0 0 0 0 0 0 0 0 0 0 0 0 0 0 0 0 0 0 127 0" result="hardAlpha"/>
<feOffset dy="4"/>
<feGaussianBlur stdDeviation="2"/>
<feComposite in2="hardAlpha" operator="out"/>
<feColorMatrix type="matrix" values="0 0 0 0 0 0 0 0 0 0 0 0 0 0 0 0 0 0 0.25 0"/>
<feBlend mode="normal" in2="BackgroundImageFix" result="effect1_dropShadow_3_2"/>
<feBlend mode="normal" in="SourceGraphic" in2="effect1_dropShadow_3_2" result="shape"/>
</filter>
<filter id="filter8_d_3_2" x="383" y="743" width="148" height="58" filterUnits="userSpaceOnUse" color-interpolation-filters="sRGB">
<feFlood flood-opacity="0" result="BackgroundImageFix"/>
<feColorMatrix in="SourceAlpha" type="matrix" values="0 0 0 0 0 0 0 0 0 0 0 0 0 0 0 0 0 0 127 0" result="hardAlpha"/>
<feOffset dy="4"/>
<feGaussianBlur stdDeviation="2"/>
<feComposite in2="hardAlpha" operator="out"/>
<feColorMatrix type="matrix" values="0 0 0 0 0 0 0 0 0 0 0 0 0 0 0 0 0 0 0.25 0"/>
<feBlend mode="normal" in2="BackgroundImageFix" result="effect1_dropShadow_3_2"/>
<feBlend mode="normal" in="SourceGraphic" in2="effect1_dropShadow_3_2" result="shape"/>
</filter>
</defs>
</svg>
